<?xml version="1.0" encoding="utf-8"?>
<!-- Generator: Adobe Illustrator 20.0.0, SVG Export Plug-In . SVG Version: 6.00 Build 0)  -->
<svg version="1.1" id="Layer_1" xmlns="http://www.w3.org/2000/svg" xmlns:xlink="http://www.w3.org/1999/xlink" x="0px" y="0px"
	 width="14px" height="12.2px" viewBox="0 0 14 12.2" style="enable-background:new 0 0 14 12.2;" xml:space="preserve">
<style type="text/css">
	.st0{fill:#FFFFFF;}
</style>
<path class="st0" d="M12.5,2.9H1.5C0.7,2.9,0,2.3,0,1.5v0C0,0.7,0.7,0,1.5,0l11.1,0C13.3,0,14,0.7,14,1.5v0
	C14,2.3,13.3,2.9,12.5,2.9z"/>
<path class="st0" d="M12.5,12.2H1.5c-0.8,0-1.5-0.7-1.5-1.5v0c0-0.8,0.7-1.5,1.5-1.5h11.1c0.8,0,1.5,0.7,1.5,1.5v0
	C14,11.6,13.3,12.2,12.5,12.2z"/>
<path class="st0" d="M12.5,7.6H1.5C0.7,7.6,0,6.9,0,6.1v0c0-0.8,0.7-1.5,1.5-1.5h11.1c0.8,0,1.5,0.7,1.5,1.5v0
	C14,6.9,13.3,7.6,12.5,7.6z"/>
</svg>
