<?xml version="1.0" encoding="utf-8"?>
<!-- Generator: Adobe Illustrator 20.0.0, SVG Export Plug-In . SVG Version: 6.00 Build 0)  -->
<svg version="1.1" id="Layer_1" xmlns="http://www.w3.org/2000/svg" xmlns:xlink="http://www.w3.org/1999/xlink" x="0px" y="0px"
	 width="31.8px" height="32.2px" viewBox="0 0 31.8 32.2" style="enable-background:new 0 0 31.8 32.2;" xml:space="preserve">
<style type="text/css">
	.st0{fill:#FFFFFF;}
</style>
<title>Search icon mobile</title>
<path class="st0" d="M30.5,28.8l-6.6-6.6c4.7-5.6,4-13.9-1.6-18.6S8.5-0.3,3.8,5.3s-4,13.9,1.6,18.6c4.7,4,11.6,4.2,16.5,0.4
	l6.6,6.6c0.6,0.5,1.4,0.5,2,0C30.9,30.2,31,29.4,30.5,28.8z M3.8,14c0-5.6,4.6-10.2,10.2-10.2S24.1,8.3,24.1,14s-4.6,10.2-10.2,10.2
	C8.3,24.1,3.8,19.6,3.8,14z"/>
</svg>
