<svg version="1.1" id="Layer_1" xmlns="http://www.w3.org/2000/svg" x="0px" y="0px" width="17px" height="17px" viewBox="0 0 17 17" style="enable-background:new 0 0 17 17;" xml:space="preserve">
<path fill="#CE0407" d="M8.5,0.5c-4.4,0-8,3.6-8,8s3.6,8,8,8s8-3.6,8-8S12.9,0.5,8.5,0.5z M12.3,10.9c0.4,0.4,0.4,1,0,1.4s-1,0.4-1.4,0 L8.5,9.9l-2.4,2.4c-0.4,0.4-1,0.4-1.4,0s-0.4-1,0-1.4l2.4-2.4L4.7,6.1c-0.4-0.4-0.4-1,0-1.4s1-0.4,1.4,0l2.4,2.4l2.4-2.4 c0.4-0.4,1-0.4,1.4,0s0.4,1,0,1.4L9.9,8.5L12.3,10.9z"/></svg>